<svg width="760" height="576" viewBox="0 0 760 576" xmlns="http://www.w3.org/2000/svg" role="img" aria-labelledby="loop-title" font-family="-apple-system,'Apple SD Gothic Neo','Noto Sans KR',sans-serif">
  <title id="loop-title">루프 엔지니어링 — 파악 · 계획 · 실행 · 검증 · 반복 사이클. cladding이 검증 단계다: 코드를 당신의 스펙과 대조해 GREEN 아니면 문제점을 돌려주고, 자기 코드는 못 채점한다. 목표는 당신이 세우고, 판정을 보고 끝낼지 반복할지 당신이 정하며, 루프는 당신이 멈출 때까지 돈다. 모델이 자기 일을 스스로 채점하면 루프가 무너지는 곳이 검증인데, cladding이 믿을 수 있는 검증이 되어 준다.</title>
  <defs>
    <style>
      :root{
        --brand:#3b82f6; --brand-deep:#1d4ed8; --brand-soft:#eff6ff;
        --ink:#6b7280; --text:#737a84; --muted:#6f757f; --faint:#8b919b;
        --border:#8b93a1; --surface:rgba(148,163,184,0.18); --ok:#16a34a; --block:#e11d48; --brand-text:#3f76d6;
      }
      .title{font-size:19px;font-weight:800;fill:var(--ink);letter-spacing:-.3px}
      .sub0{font-size:12.5px;fill:var(--muted)}
      .hdr{font-size:13.5px;font-weight:700;fill:#ffffff}
      .item{font-size:12.5px;fill:var(--text)}
      .muted{font-size:10.5px;fill:var(--faint)}
      .focal{font-size:20px;font-weight:800;fill:#ffffff;letter-spacing:-.3px}
      .flow{font-size:10.5px;font-weight:600;fill:var(--brand-text)}
      .card{fill:var(--surface);stroke:var(--border);stroke-width:1.25}
      .band{fill:var(--brand)} .focalbox{fill:var(--brand-deep)}
      .okfill{fill:var(--ok)} .blockfill{fill:var(--block)} .inkfill{fill:var(--ink)}
      .stage{font-size:13px;font-weight:700;fill:var(--ink)}
      .stagesub{font-size:10.5px;fill:var(--muted)}
    </style>
    <marker id="ab" markerWidth="8" markerHeight="8" refX="6" refY="3" orient="auto"><path d="M0,0 L6,3 L0,6 z" fill="#3b82f6"/></marker>
    <marker id="ag" markerWidth="8" markerHeight="8" refX="6" refY="3" orient="auto"><path d="M0,0 L6,3 L0,6 z" fill="#16a34a"/></marker>
    <marker id="ar" markerWidth="8" markerHeight="8" refX="6" refY="3" orient="auto"><path d="M0,0 L6,3 L0,6 z" fill="#e11d48"/></marker>
  </defs>

  <!-- Title -->
  <text x="380" y="30" text-anchor="middle" class="title">루프 엔지니어링</text>
  <rect x="338" y="40" width="84" height="3" rx="1.5" fill="#3b82f6"/>
  <text x="380" y="58" text-anchor="middle" class="sub0">목표는 당신이 세우고 루프는 스스로 돈다 — cladding이 그 검증 단계다</text>

  <g transform="translate(0,-54)">
  <!-- ===== the 5-stage cycle (clockwise) ===== -->

  <!-- 파악 (upper-left) -->
  <rect x="222" y="150" width="140" height="54" rx="13" class="card"/>
  <text x="292" y="178" text-anchor="middle" class="stage">파악</text>
  <text x="292" y="194" text-anchor="middle" class="stagesub">무엇이 필요한지</text>

  <!-- 계획 (upper-right) -->
  <rect x="398" y="150" width="140" height="54" rx="13" class="card"/>
  <text x="468" y="178" text-anchor="middle" class="stage">계획</text>
  <text x="468" y="194" text-anchor="middle" class="stagesub">→ 스펙 작성</text>

  <!-- 실행 (right) -->
  <rect x="454" y="320" width="140" height="54" rx="13" class="card"/>
  <text x="524" y="348" text-anchor="middle" class="stage">실행</text>
  <text x="524" y="364" text-anchor="middle" class="stagesub">AI가 코드를 쓴다</text>

  <!-- 반복 (left) -->
  <rect x="166" y="320" width="140" height="54" rx="13" class="card"/>
  <text x="236" y="348" text-anchor="middle" class="stage">반복</text>
  <text x="236" y="364" text-anchor="middle" class="stagesub">문제점을 고친다</text>

  <!-- Verify = cladding (bottom, spotlight) -->
  <rect x="278" y="404" width="204" height="98" rx="15" class="focalbox"/>
  <text x="380" y="432" text-anchor="middle" class="focal">cladding</text>
  <text x="380" y="456" text-anchor="middle" font-size="11" fill="#bfdbfe">검증 — 스펙과 대조</text>
  <text x="380" y="476" text-anchor="middle" font-size="11.5" font-weight="700" fill="#dbeafe">GREEN, 아니면 문제점</text>
  <text x="380" y="494" text-anchor="middle" font-size="10" fill="#bfdbfe">(자기 코드는 못 채점한다)</text>

  <!-- you, in the middle of the loop -->
  <text x="380" y="286" text-anchor="middle" class="flow">▸ 목표는 당신이 세운다</text>
  <text x="380" y="304" text-anchor="middle" class="stagesub">루프는 당신이 멈출 때까지 돈다</text>

  <!-- Ring arrows (clockwise) -->
  <line x1="364" y1="177" x2="396" y2="177" stroke="#3b82f6" stroke-width="1.9" marker-end="url(#ab)"/>
  <path d="M 510 204 Q 540 262 522 318" fill="none" stroke="#3b82f6" stroke-width="1.9" marker-end="url(#ab)"/>
  <path d="M 500 374 Q 470 396 458 404" fill="none" stroke="#3b82f6" stroke-width="1.9" marker-end="url(#ab)"/>
  <path d="M 300 402 Q 286 396 282 374" fill="none" stroke="#e11d48" stroke-width="1.9" marker-end="url(#ar)"/>
  <text x="300" y="392" text-anchor="middle" font-size="10.5" font-weight="700" fill="#e11d48">FAIL</text>
  <path d="M 250 318 Q 232 262 262 206" fill="none" stroke="#3b82f6" stroke-width="1.9" marker-end="url(#ab)"/>

  <!-- PASS: Verify → done (exits the loop) -->
  <line x1="380" y1="504" x2="380" y2="532" stroke="#16a34a" stroke-width="2" marker-end="url(#ag)"/>
  <text x="394" y="522" text-anchor="start" font-size="10.5" font-weight="700" fill="#16a34a">PASS (GREEN)</text>
  <rect x="300" y="534" width="160" height="52" rx="13" class="okfill"/>
  <text x="380" y="560" text-anchor="middle" font-size="12.5" font-weight="700" fill="#ffffff">완료 ✓</text>
  <text x="380" y="577" text-anchor="middle" font-size="10.5" fill="#dcfce7">멈추거나 계속 돈다</text>

  <!-- loop on: done → back to the start (다음 목표) -->
  <path d="M 298 566 C 96 556, 30 450, 40 338 C 49 236, 140 192, 218 188" fill="none" stroke="#3b82f6" stroke-width="1.7" stroke-dasharray="5 4" marker-end="url(#ab)"/>
  <text x="66" y="356" text-anchor="middle" class="flow">다음 목표</text>

  <!-- Advantage, foregrounded -->
  <text x="380" y="608" text-anchor="middle" class="sub0">모델이 자기 일을 스스로 채점하면 그냥 자기한테 합격점만 준다 — 루프가 무너지는 곳이 검증이다.</text>
  <text x="380" y="626" text-anchor="middle" font-size="12.5" font-weight="800" fill="#3f76d6">cladding은 믿을 수 있는 검증이다: 독립적이고 당신의 스펙에 대조하므로 — done은 선언이 아니라 획득된다.</text>
  </g>
</svg>
